<?xml version="1.0" encoding="iso-8859-1"?>
<!-- Generator: Adobe Illustrator 22.0.0, SVG Export Plug-In . SVG Version: 6.00 Build 0)  -->
<svg xmlns="http://www.w3.org/2000/svg" xmlns:xlink="http://www.w3.org/1999/xlink" version="1.1" id="Layer_1" x="0px" y="0px" viewBox="0 0 60 58" style="enable-background:new 0 0 60 58;" xml:space="preserve" width="512" height="512">
<g id="_x33_5-Dress_Shop">
	<g>
		<path d="M59.03,56h-4V20.975C54.865,20.99,54.699,21,54.53,21c-1.081,0-2.192-0.024-3.198-0.465    c-0.921-0.403-1.724-1.06-2.302-1.883c0.05,0.071-0.591,0.709-0.664,0.779c-0.255,0.248-0.534,0.472-0.832,0.667    c-0.608,0.398-1.282,0.633-1.993,0.777c-2.396,0.488-5.057-0.152-6.512-2.224c0.097,0.137-0.982,1.07-1.107,1.168    c-0.429,0.337-0.908,0.61-1.417,0.806c-1.248,0.482-2.663,0.488-3.914,0.015c-0.01-0.004-0.02-0.007-0.029-0.011    c-1.029-0.396-1.909-1.089-2.534-1.978c0.105,0.15-1.051,1.127-1.186,1.228c-0.47,0.356-0.997,0.635-1.554,0.824    c-2.286,0.774-4.875-0.082-6.26-2.053c0.048,0.069-0.574,0.691-0.644,0.76c-0.247,0.243-0.517,0.463-0.804,0.655    c-0.598,0.4-1.22,0.642-1.923,0.778c-1.43,0.277-2.956,0.234-4.317-0.32c-0.931-0.378-1.736-1.053-2.312-1.874    c0.064,0.091-0.716,0.832-0.805,0.913c-0.312,0.283-0.656,0.531-1.024,0.736c-1.162,0.648-2.381,0.699-3.671,0.699    c-0.168,0-0.335-0.01-0.5-0.025V56h-4c-0.552,0-1,0.447-1,1s0.448,1,1,1h58c0.552,0,1-0.447,1-1S59.582,56,59.03,56z M27.03,24    c0-0.553,0.448-1,1-1h24c0.552,0,1,0.447,1,1v29c0,0.553-0.448,1-1,1h-24c-0.552,0-1-0.447-1-1V24z M23.03,56V26h-14v5h1    c0.552,0,1,0.447,1,1s-0.448,1-1,1h-1v16h1c0.552,0,1,0.447,1,1s-0.448,1-1,1h-1v5h-2V25c0-0.553,0.448-1,1-1h16    c0.552,0,1,0.447,1,1v31H23.03z M17.03,41c-0.552,0-1-0.447-1-1s0.448-1,1-1h3c0.552,0,1,0.447,1,1v3c0,0.553-0.448,1-1,1    s-1-0.447-1-1v-2H17.03z"/>
		<path d="M31.248,16.665c0.062,0.174,0.137,0.34,0.225,0.503c0.321,0.841,1.353,1.493,2.184,1.705    c1.528,0.389,3.177-0.316,3.934-1.709c0.086-0.159,0.161-0.325,0.23-0.513c0.127-0.362,0.21-0.746,0.21-1.151V15h-7v0.5    C31.03,15.905,31.113,16.289,31.248,16.665z"/>
		<path d="M22.248,16.665c0.062,0.174,0.137,0.34,0.225,0.503c0.31,0.812,1.297,1.454,2.094,1.68c1.551,0.44,3.25-0.26,4.023-1.684    c0.086-0.159,0.161-0.325,0.23-0.513c0.127-0.362,0.21-0.746,0.21-1.151V15h-7v0.5C22.03,15.905,22.113,16.289,22.248,16.665z"/>
		<path d="M12.03,15.5c0,0.405,0.083,0.789,0.218,1.165c0.062,0.174,0.137,0.34,0.225,0.503c1.085,1.996,3.923,2.301,5.813,1.355    c0.486-0.244,1.104-0.836,1.304-1.359c0.086-0.159,0.161-0.325,0.23-0.513c0.127-0.362,0.21-0.746,0.21-1.151V15h-8V15.5z"/>
		<path d="M38.03,12.55c0-1.626-0.162-3.259-0.48-4.854c-0.345-1.724-0.52-3.489-0.52-5.246V0h-6v13h7V12.55z"/>
		<path d="M40.03,15.5c0,0.405,0.083,0.789,0.218,1.165c0.062,0.174,0.137,0.34,0.225,0.503c1.06,1.949,3.971,2.392,5.823,1.346    c0.483-0.273,1.089-0.812,1.294-1.35c0.086-0.159,0.161-0.325,0.23-0.513c0.127-0.362,0.21-0.746,0.21-1.151V15h-8V15.5z"/>
		<path d="M29.03,0h-6v2.45c0,1.757-0.175,3.522-0.52,5.246c-0.319,1.595-0.48,3.228-0.48,4.854V13h7V0z"/>
		<path d="M40.03,12.55V13h8v-0.085c0-1.726-0.469-3.42-1.357-4.9c-1.075-1.791-1.643-3.842-1.643-5.93V0h-6v2.45    c0,1.626,0.162,3.259,0.48,4.854C39.855,9.027,40.03,10.793,40.03,12.55z"/>
		<path d="M50.03,15.5c0,0.405,0.083,0.789,0.218,1.165c0.062,0.174,0.137,0.34,0.225,0.503c0.359,0.943,1.459,1.516,2.372,1.725    c1.199,0.275,2.657,0.183,3.69-0.539c0.926-0.648,1.496-1.723,1.496-2.855v-0.5h-8L50.03,15.5L50.03,15.5z"/>
		<path d="M35.062,43.593l-0.015,0.439c-0.04,1.033-0.081,2.102,0.624,2.834C36.395,47.618,37.861,48,40.029,48    s3.635-0.382,4.359-1.134c0.704-0.732,0.663-1.801,0.623-2.834l-0.014-0.439c-0.018-0.842-0.335-1.653-0.917-2.346    c-2.578-3.069-2.379-5.492-1.758-6.984c0.355-0.855,0.674-2.127,0.244-3.436c-0.717,1.978-2.042,2.612-2.119,2.647    c-0.265,0.121-0.57,0.121-0.835,0c-0.076-0.035-1.401-0.67-2.118-2.647c-0.43,1.309-0.112,2.58,0.244,3.436    c0.621,1.492,0.819,3.915-1.758,6.984C35.397,41.939,35.08,42.751,35.062,43.593z"/>
		<path d="M39.03,49.973c-2.234-0.126-3.81-0.692-4.8-1.72c-1.294-1.346-1.226-3.122-1.181-4.298l0.014-0.405    c0.027-1.303,0.507-2.544,1.386-3.59c1.528-1.819,2.027-3.524,1.442-4.93c-0.739-1.777-0.804-3.554-0.186-5.138    c0.652-1.672,1.559-2.536,1.66-2.629c0.292-0.268,0.716-0.338,1.079-0.18c0.363,0.16,0.598,0.52,0.598,0.916    c0,1.861,0.57,2.835,0.99,3.299c0.414-0.46,0.986-1.434,0.986-3.299c0-0.396,0.235-0.756,0.598-0.916    c0.363-0.159,0.786-0.089,1.079,0.18c0.101,0.093,1.008,0.957,1.66,2.629c0.618,1.584,0.554,3.36-0.186,5.138    c-0.584,1.405-0.085,3.11,1.443,4.93c0.878,1.046,1.357,2.287,1.385,3.59l0.013,0.405c0.045,1.176,0.114,2.952-1.181,4.298    c-0.989,1.029-2.565,1.594-4.8,1.72V52h10V25h-22v27h10V49.973z"/>
		<path d="M10.03,12.915c0-2.088,0.568-4.139,1.643-5.93c0.888-1.48,1.357-3.175,1.357-4.9V0H7.926C7.432,0,7.03,0.402,7.03,0.896    v1.032c0,2.247-0.875,4.36-2.464,5.95c-1.397,1.396-2.258,3.187-2.479,5.121h7.943V12.915z"/>
		<path d="M50.03,12.915V13h7.943c-0.221-1.935-1.082-3.725-2.479-5.121c-1.589-1.59-2.465-3.703-2.465-5.95V0.897    c0-0.494-0.402-0.896-0.896-0.896h-5.104v2.085c0,1.726,0.47,3.42,1.357,4.9C49.462,8.776,50.03,10.827,50.03,12.915z"/>
		<path d="M4.328,18.777c1.188,0.43,2.643,0.314,3.763-0.164c0.627-0.267,1.174-0.853,1.498-1.449    c0.086-0.159,0.161-0.325,0.23-0.513c0.127-0.362,0.21-0.746,0.21-1.151V15h-8v0.5c0,1.239,0.704,2.466,1.804,3.057    C3.992,18.642,4.158,18.715,4.328,18.777z"/>
		<path d="M12.03,13h8v-0.45c0-1.757,0.175-3.522,0.52-5.246c0.319-1.595,0.48-3.228,0.48-4.854V0h-6v2.085    c0,2.088-0.568,4.139-1.643,5.93c-0.888,1.48-1.357,3.175-1.357,4.9V13z"/>
	</g>
</g>

</svg>
